<svg xmlns="http://www.w3.org/2000/svg" xmlns:xlink="http://www.w3.org/1999/xlink" width="1920" zoomAndPan="magnify" viewBox="0 0 1440 1439.999935" height="1920" preserveAspectRatio="xMidYMid meet" version="1.0"><defs><clipPath id="64044621d6"><path d="M 1126 166 L 1320.449219 166 L 1320.449219 361 L 1126 361 Z M 1126 166 " clip-rule="nonzero"/></clipPath><clipPath id="6501ae040b"><path d="M 1126 523 L 1320.449219 523 L 1320.449219 718 L 1126 718 Z M 1126 523 " clip-rule="nonzero"/></clipPath></defs><path fill="#000000" d="M 127.433594 1407.707031 C 254.726562 1319.890625 1010.792969 769.910156 740.535156 271.683594 C 738.195312 267.355469 735.730469 263.097656 733.144531 258.914062 C 730.554688 254.726562 727.84375 250.621094 725.015625 246.597656 C 722.1875 242.570312 719.242188 238.628906 716.179688 234.777344 C 713.117188 230.925781 709.949219 227.164062 706.664062 223.496094 C 703.382812 219.832031 699.996094 216.261719 696.507812 212.792969 C 693.015625 209.324219 689.425781 205.964844 685.738281 202.707031 C 682.046875 199.449219 678.265625 196.300781 674.394531 193.265625 C 670.519531 190.230469 666.5625 187.308594 662.515625 184.507812 C 658.472656 181.703125 654.347656 179.019531 650.148438 176.460938 C 645.945312 173.898438 641.671875 171.460938 637.328125 169.152344 C 632.980469 166.839844 628.570312 164.660156 624.097656 162.609375 C 619.625 160.554688 615.097656 158.636719 610.511719 156.851562 C 605.925781 155.066406 601.289062 153.414062 596.609375 151.902344 C 591.925781 150.386719 587.203125 149.011719 582.4375 147.777344 C 577.675781 146.539062 572.878906 145.441406 568.050781 144.488281 C 563.222656 143.53125 558.371094 142.71875 553.496094 142.046875 C 459.75 129.234375 334.859375 143.96875 266.621094 284.410156 C 251.535156 315.453125 275.359375 351.210938 309.84375 349.683594 C 322.632812 348.964844 335.269531 347.148438 347.746094 344.230469 C 383.84375 336.203125 421.675781 339.570312 455.21875 355.136719 C 499.304688 375.597656 542.90625 415.371094 518.53125 491.054688 C 516.335938 497.734375 513.757812 504.265625 510.808594 510.644531 C 507.855469 517.027344 504.550781 523.21875 500.882812 529.222656 C 497.21875 535.222656 493.222656 540.992188 488.894531 546.535156 C 484.5625 552.074219 479.929688 557.347656 474.996094 562.355469 C 437.707031 600.660156 362.46875 655.011719 267.675781 603.085938 C 186.417969 558.582031 141.40625 467.574219 154.6875 375.898438 C 165.8125 299.125 214.601562 206.308594 363.566406 138.367188 C 363.566406 138.367188 640.046875 -0.0078125 868.519531 175.011719 C 879.59375 183.472656 890.121094 192.570312 900.101562 202.296875 C 910.085938 212.019531 919.453125 222.308594 928.199219 233.15625 C 936.949219 244.003906 945.019531 255.335938 952.410156 267.152344 C 959.800781 278.96875 966.457031 291.183594 972.382812 303.796875 C 1011.789062 387.941406 1052.371094 537.882812 980.914062 730.273438 C 935.484375 852.601562 856.21875 959.492188 753.589844 1040.089844 C 620.1875 1144.859375 363.960938 1335.488281 144.25 1437.089844 C 143.5 1437.4375 142.730469 1437.730469 141.9375 1437.964844 C 141.144531 1438.199219 140.339844 1438.375 139.519531 1438.492188 C 138.703125 1438.609375 137.878906 1438.667969 137.050781 1438.667969 C 136.222656 1438.664062 135.402344 1438.601562 134.585938 1438.480469 C 133.765625 1438.359375 132.960938 1438.175781 132.167969 1437.9375 C 131.378906 1437.699219 130.609375 1437.402344 129.859375 1437.050781 C 129.113281 1436.699219 128.394531 1436.292969 127.703125 1435.835938 C 127.015625 1435.378906 126.359375 1434.875 125.746094 1434.324219 C 125.269531 1433.898438 124.820312 1433.445312 124.394531 1432.964844 C 123.96875 1432.488281 123.574219 1431.988281 123.203125 1431.464844 C 122.835938 1430.941406 122.5 1430.398438 122.191406 1429.835938 C 121.886719 1429.277344 121.609375 1428.699219 121.367188 1428.109375 C 121.125 1427.515625 120.917969 1426.914062 120.746094 1426.296875 C 120.570312 1425.679688 120.433594 1425.058594 120.328125 1424.425781 C 120.226562 1423.796875 120.160156 1423.160156 120.128906 1422.519531 C 120.097656 1421.882812 120.101562 1421.242188 120.140625 1420.605469 C 120.179688 1419.96875 120.257812 1419.332031 120.371094 1418.703125 C 120.480469 1418.074219 120.628906 1417.453125 120.8125 1416.839844 C 120.992188 1416.226562 121.210938 1415.625 121.460938 1415.035156 C 121.710938 1414.449219 121.992188 1413.875 122.308594 1413.320312 C 122.621094 1412.761719 122.96875 1412.222656 123.34375 1411.707031 C 123.71875 1411.1875 124.121094 1410.695312 124.554688 1410.222656 C 124.984375 1409.75 125.441406 1409.304688 125.921875 1408.882812 C 126.40625 1408.460938 126.910156 1408.070312 127.433594 1407.707031 Z M 127.433594 1407.707031 " fill-opacity="1" fill-rule="nonzero"/><g clip-path="url(#64044621d6)"><path fill="#000000" d="M 1320.277344 263.78125 C 1320.277344 265.371094 1320.238281 266.957031 1320.160156 268.542969 C 1320.082031 270.128906 1319.964844 271.714844 1319.8125 273.292969 C 1319.65625 274.875 1319.460938 276.449219 1319.226562 278.019531 C 1318.996094 279.589844 1318.722656 281.15625 1318.414062 282.714844 C 1318.101562 284.269531 1317.753906 285.820312 1317.371094 287.359375 C 1316.984375 288.902344 1316.558594 290.433594 1316.097656 291.953125 C 1315.636719 293.472656 1315.140625 294.980469 1314.605469 296.472656 C 1314.070312 297.96875 1313.496094 299.453125 1312.890625 300.917969 C 1312.28125 302.386719 1311.636719 303.835938 1310.960938 305.273438 C 1310.28125 306.707031 1309.566406 308.128906 1308.816406 309.527344 C 1308.070312 310.929688 1307.285156 312.308594 1306.46875 313.671875 C 1305.652344 315.035156 1304.804688 316.375 1303.921875 317.695312 C 1303.039062 319.015625 1302.125 320.316406 1301.179688 321.589844 C 1300.230469 322.867188 1299.253906 324.117188 1298.246094 325.34375 C 1297.238281 326.574219 1296.203125 327.777344 1295.136719 328.953125 C 1294.070312 330.128906 1292.972656 331.277344 1291.851562 332.402344 C 1290.726562 333.523438 1289.578125 334.621094 1288.402344 335.6875 C 1287.222656 336.753906 1286.019531 337.789062 1284.792969 338.796875 C 1283.566406 339.804688 1282.3125 340.78125 1281.039062 341.726562 C 1279.761719 342.675781 1278.464844 343.589844 1277.144531 344.46875 C 1275.824219 345.351562 1274.480469 346.203125 1273.117188 347.019531 C 1271.757812 347.835938 1270.375 348.617188 1268.972656 349.367188 C 1267.574219 350.113281 1266.15625 350.828125 1264.71875 351.507812 C 1263.28125 352.1875 1261.832031 352.832031 1260.363281 353.4375 C 1258.894531 354.046875 1257.414062 354.617188 1255.917969 355.152344 C 1254.421875 355.6875 1252.914062 356.1875 1251.394531 356.648438 C 1249.875 357.109375 1248.34375 357.53125 1246.804688 357.917969 C 1245.261719 358.304688 1243.714844 358.652344 1242.15625 358.960938 C 1240.597656 359.269531 1239.035156 359.542969 1237.460938 359.773438 C 1235.890625 360.007812 1234.316406 360.203125 1232.734375 360.359375 C 1231.152344 360.515625 1229.570312 360.628906 1227.984375 360.707031 C 1226.398438 360.785156 1224.808594 360.824219 1223.222656 360.824219 C 1221.632812 360.824219 1220.046875 360.785156 1218.460938 360.707031 C 1216.875 360.628906 1215.289062 360.515625 1213.707031 360.359375 C 1212.128906 360.203125 1210.550781 360.007812 1208.980469 359.773438 C 1207.410156 359.542969 1205.84375 359.269531 1204.285156 358.960938 C 1202.730469 358.652344 1201.179688 358.304688 1199.640625 357.917969 C 1198.097656 357.53125 1196.566406 357.109375 1195.046875 356.648438 C 1193.527344 356.1875 1192.019531 355.6875 1190.523438 355.152344 C 1189.027344 354.617188 1187.546875 354.046875 1186.078125 353.4375 C 1184.613281 352.832031 1183.160156 352.1875 1181.726562 351.507812 C 1180.289062 350.828125 1178.871094 350.113281 1177.46875 349.367188 C 1176.070312 348.617188 1174.6875 347.835938 1173.324219 347.019531 C 1171.960938 346.203125 1170.621094 345.351562 1169.300781 344.46875 C 1167.980469 343.589844 1166.679688 342.675781 1165.40625 341.726562 C 1164.128906 340.78125 1162.878906 339.804688 1161.648438 338.796875 C 1160.421875 337.789062 1159.21875 336.753906 1158.042969 335.6875 C 1156.867188 334.621094 1155.714844 333.523438 1154.59375 332.402344 C 1153.46875 331.277344 1152.375 330.128906 1151.308594 328.953125 C 1150.242188 327.777344 1149.203125 326.574219 1148.195312 325.34375 C 1147.1875 324.117188 1146.210938 322.867188 1145.265625 321.589844 C 1144.320312 320.316406 1143.40625 319.015625 1142.523438 317.695312 C 1141.640625 316.375 1140.789062 315.035156 1139.972656 313.671875 C 1139.15625 312.308594 1138.375 310.929688 1137.625 309.527344 C 1136.878906 308.128906 1136.164062 306.707031 1135.484375 305.273438 C 1134.804688 303.835938 1134.160156 302.386719 1133.554688 300.917969 C 1132.945312 299.453125 1132.375 297.96875 1131.839844 296.472656 C 1131.304688 294.980469 1130.804688 293.472656 1130.34375 291.953125 C 1129.882812 290.433594 1129.460938 288.902344 1129.074219 287.359375 C 1128.6875 285.820312 1128.339844 284.269531 1128.03125 282.714844 C 1127.71875 281.15625 1127.449219 279.589844 1127.214844 278.019531 C 1126.984375 276.449219 1126.789062 274.875 1126.632812 273.292969 C 1126.476562 271.714844 1126.359375 270.128906 1126.28125 268.542969 C 1126.203125 266.957031 1126.164062 265.371094 1126.164062 263.78125 C 1126.164062 262.191406 1126.203125 260.605469 1126.28125 259.019531 C 1126.359375 257.433594 1126.476562 255.851562 1126.632812 254.269531 C 1126.789062 252.6875 1126.984375 251.113281 1127.214844 249.542969 C 1127.449219 247.972656 1127.71875 246.40625 1128.03125 244.847656 C 1128.339844 243.292969 1128.6875 241.742188 1129.074219 240.203125 C 1129.460938 238.660156 1129.882812 237.132812 1130.34375 235.609375 C 1130.804688 234.089844 1131.304688 232.582031 1131.839844 231.089844 C 1132.375 229.59375 1132.945312 228.113281 1133.554688 226.644531 C 1134.160156 225.175781 1134.804688 223.726562 1135.484375 222.289062 C 1136.164062 220.855469 1136.878906 219.4375 1137.625 218.035156 C 1138.375 216.632812 1139.15625 215.253906 1139.972656 213.890625 C 1140.789062 212.527344 1141.640625 211.1875 1142.523438 209.867188 C 1143.40625 208.546875 1144.320312 207.25 1145.265625 205.972656 C 1146.210938 204.695312 1147.1875 203.445312 1148.195312 202.21875 C 1149.203125 200.988281 1150.242188 199.789062 1151.308594 198.609375 C 1152.375 197.433594 1153.46875 196.285156 1154.59375 195.160156 C 1155.714844 194.039062 1156.867188 192.941406 1158.042969 191.875 C 1159.21875 190.808594 1160.421875 189.773438 1161.648438 188.765625 C 1162.878906 187.757812 1164.128906 186.78125 1165.40625 185.835938 C 1166.679688 184.890625 1167.980469 183.976562 1169.300781 183.09375 C 1170.621094 182.210938 1171.960938 181.359375 1173.324219 180.542969 C 1174.6875 179.726562 1176.070312 178.945312 1177.46875 178.195312 C 1178.871094 177.449219 1180.289062 176.734375 1181.726562 176.054688 C 1183.160156 175.375 1184.613281 174.730469 1186.078125 174.125 C 1187.546875 173.515625 1189.027344 172.945312 1190.523438 172.410156 C 1192.019531 171.875 1193.527344 171.378906 1195.046875 170.917969 C 1196.566406 170.457031 1198.097656 170.03125 1199.640625 169.644531 C 1201.179688 169.261719 1202.730469 168.910156 1204.285156 168.601562 C 1205.84375 168.292969 1207.410156 168.019531 1208.980469 167.789062 C 1210.550781 167.554688 1212.128906 167.359375 1213.707031 167.203125 C 1215.289062 167.050781 1216.871094 166.933594 1218.460938 166.855469 C 1220.046875 166.777344 1221.632812 166.738281 1223.222656 166.738281 C 1224.808594 166.738281 1226.398438 166.777344 1227.984375 166.855469 C 1229.570312 166.933594 1231.152344 167.050781 1232.734375 167.203125 C 1234.316406 167.359375 1235.890625 167.554688 1237.464844 167.789062 C 1239.035156 168.019531 1240.597656 168.292969 1242.15625 168.601562 C 1243.714844 168.910156 1245.261719 169.261719 1246.804688 169.644531 C 1248.34375 170.03125 1249.875 170.457031 1251.394531 170.917969 C 1252.914062 171.378906 1254.421875 171.875 1255.917969 172.410156 C 1257.414062 172.945312 1258.894531 173.515625 1260.363281 174.125 C 1261.832031 174.730469 1263.28125 175.375 1264.71875 176.054688 C 1266.15625 176.734375 1267.574219 177.449219 1268.972656 178.195312 C 1270.375 178.945312 1271.757812 179.726562 1273.117188 180.542969 C 1274.480469 181.359375 1275.824219 182.210938 1277.144531 183.09375 C 1278.464844 183.976562 1279.761719 184.890625 1281.039062 185.835938 C 1282.3125 186.78125 1283.566406 187.757812 1284.792969 188.765625 C 1286.019531 189.773438 1287.222656 190.808594 1288.402344 191.875 C 1289.578125 192.941406 1290.726562 194.039062 1291.851562 195.160156 C 1292.972656 196.285156 1294.070312 197.433594 1295.136719 198.609375 C 1296.203125 199.789062 1297.238281 200.988281 1298.246094 202.21875 C 1299.253906 203.445312 1300.230469 204.695312 1301.179688 205.972656 C 1302.125 207.25 1303.039062 208.546875 1303.921875 209.867188 C 1304.804688 211.1875 1305.652344 212.527344 1306.46875 213.890625 C 1307.285156 215.253906 1308.070312 216.632812 1308.816406 218.035156 C 1309.566406 219.4375 1310.28125 220.855469 1310.960938 222.289062 C 1311.636719 223.726562 1312.28125 225.175781 1312.890625 226.644531 C 1313.496094 228.113281 1314.070312 229.59375 1314.605469 231.089844 C 1315.140625 232.582031 1315.636719 234.089844 1316.097656 235.609375 C 1316.558594 237.132812 1316.984375 238.660156 1317.371094 240.203125 C 1317.753906 241.742188 1318.101562 243.292969 1318.414062 244.847656 C 1318.722656 246.40625 1318.996094 247.972656 1319.226562 249.542969 C 1319.460938 251.113281 1319.65625 252.6875 1319.8125 254.269531 C 1319.964844 255.851562 1320.082031 257.433594 1320.160156 259.019531 C 1320.238281 260.605469 1320.277344 262.191406 1320.277344 263.78125 Z M 1320.277344 263.78125 " fill-opacity="1" fill-rule="nonzero"/></g><g clip-path="url(#6501ae040b)"><path fill="#000000" d="M 1320.277344 620.789062 C 1320.277344 622.378906 1320.238281 623.964844 1320.160156 625.550781 C 1320.082031 627.136719 1319.964844 628.722656 1319.8125 630.300781 C 1319.65625 631.882812 1319.460938 633.457031 1319.226562 635.03125 C 1318.996094 636.601562 1318.722656 638.164062 1318.414062 639.722656 C 1318.101562 641.28125 1317.753906 642.828125 1317.371094 644.371094 C 1316.984375 645.910156 1316.558594 647.441406 1316.097656 648.960938 C 1315.636719 650.480469 1315.140625 651.988281 1314.605469 653.484375 C 1314.070312 654.976562 1313.496094 656.460938 1312.890625 657.925781 C 1312.28125 659.394531 1311.636719 660.847656 1310.960938 662.28125 C 1310.28125 663.71875 1309.566406 665.136719 1308.816406 666.535156 C 1308.070312 667.9375 1307.285156 669.316406 1306.46875 670.679688 C 1305.652344 672.042969 1304.804688 673.382812 1303.921875 674.703125 C 1303.039062 676.023438 1302.125 677.324219 1301.179688 678.597656 C 1300.230469 679.875 1299.253906 681.125 1298.246094 682.355469 C 1297.238281 683.582031 1296.203125 684.785156 1295.136719 685.960938 C 1294.070312 687.136719 1292.972656 688.289062 1291.851562 689.410156 C 1290.726562 690.535156 1289.578125 691.628906 1288.402344 692.695312 C 1287.222656 693.761719 1286.019531 694.796875 1284.792969 695.804688 C 1283.566406 696.8125 1282.3125 697.789062 1281.039062 698.738281 C 1279.761719 699.683594 1278.464844 700.597656 1277.144531 701.480469 C 1275.824219 702.363281 1274.480469 703.210938 1273.117188 704.027344 C 1271.757812 704.84375 1270.375 705.625 1268.972656 706.375 C 1267.574219 707.125 1266.15625 707.835938 1264.71875 708.515625 C 1263.28125 709.195312 1261.832031 709.839844 1260.363281 710.445312 C 1258.894531 711.054688 1257.414062 711.625 1255.917969 712.160156 C 1254.421875 712.695312 1252.914062 713.195312 1251.394531 713.65625 C 1249.875 714.117188 1248.34375 714.539062 1246.804688 714.925781 C 1245.261719 715.3125 1243.714844 715.660156 1242.15625 715.96875 C 1240.597656 716.277344 1239.035156 716.550781 1237.460938 716.785156 C 1235.890625 717.015625 1234.316406 717.210938 1232.734375 717.367188 C 1231.152344 717.523438 1229.570312 717.640625 1227.984375 717.71875 C 1226.398438 717.792969 1224.808594 717.832031 1223.222656 717.832031 C 1221.632812 717.832031 1220.046875 717.796875 1218.460938 717.71875 C 1216.875 717.640625 1215.289062 717.523438 1213.707031 717.367188 C 1212.128906 717.210938 1210.550781 717.015625 1208.980469 716.785156 C 1207.410156 716.550781 1205.84375 716.277344 1204.285156 715.96875 C 1202.730469 715.660156 1201.179688 715.3125 1199.640625 714.925781 C 1198.097656 714.539062 1196.566406 714.117188 1195.046875 713.65625 C 1193.527344 713.195312 1192.019531 712.695312 1190.523438 712.160156 C 1189.027344 711.625 1187.546875 711.054688 1186.078125 710.445312 C 1184.613281 709.839844 1183.160156 709.195312 1181.726562 708.515625 C 1180.289062 707.835938 1178.871094 707.125 1177.46875 706.375 C 1176.070312 705.625 1174.6875 704.84375 1173.324219 704.027344 C 1171.960938 703.210938 1170.621094 702.359375 1169.300781 701.480469 C 1167.980469 700.597656 1166.679688 699.683594 1165.40625 698.734375 C 1164.128906 697.789062 1162.878906 696.8125 1161.648438 695.804688 C 1160.421875 694.796875 1159.21875 693.761719 1158.042969 692.695312 C 1156.867188 691.628906 1155.714844 690.535156 1154.59375 689.410156 C 1153.46875 688.289062 1152.375 687.136719 1151.308594 685.960938 C 1150.242188 684.785156 1149.203125 683.582031 1148.195312 682.355469 C 1147.1875 681.125 1146.210938 679.875 1145.265625 678.597656 C 1144.320312 677.324219 1143.40625 676.023438 1142.523438 674.703125 C 1141.640625 673.382812 1140.789062 672.042969 1139.972656 670.679688 C 1139.15625 669.316406 1138.375 667.9375 1137.625 666.535156 C 1136.878906 665.136719 1136.164062 663.71875 1135.484375 662.28125 C 1134.804688 660.847656 1134.160156 659.394531 1133.554688 657.925781 C 1132.945312 656.460938 1132.375 654.976562 1131.839844 653.484375 C 1131.304688 651.988281 1130.804688 650.480469 1130.34375 648.960938 C 1129.882812 647.441406 1129.460938 645.910156 1129.074219 644.371094 C 1128.6875 642.828125 1128.339844 641.28125 1128.03125 639.722656 C 1127.71875 638.164062 1127.449219 636.601562 1127.214844 635.03125 C 1126.984375 633.457031 1126.789062 631.882812 1126.632812 630.300781 C 1126.476562 628.722656 1126.359375 627.136719 1126.28125 625.550781 C 1126.203125 623.964844 1126.164062 622.378906 1126.164062 620.789062 C 1126.164062 619.203125 1126.203125 617.613281 1126.28125 616.027344 C 1126.359375 614.441406 1126.476562 612.859375 1126.632812 611.277344 C 1126.789062 609.699219 1126.984375 608.121094 1127.214844 606.550781 C 1127.449219 604.980469 1127.71875 603.414062 1128.03125 601.859375 C 1128.339844 600.300781 1128.6875 598.75 1129.074219 597.210938 C 1129.460938 595.667969 1129.882812 594.140625 1130.34375 592.621094 C 1130.804688 591.101562 1131.304688 589.59375 1131.839844 588.097656 C 1132.375 586.601562 1132.945312 585.121094 1133.554688 583.652344 C 1134.160156 582.1875 1134.804688 580.734375 1135.484375 579.296875 C 1136.164062 577.863281 1136.878906 576.445312 1137.625 575.042969 C 1138.375 573.644531 1139.15625 572.261719 1139.972656 570.898438 C 1140.789062 569.539062 1141.640625 568.195312 1142.523438 566.875 C 1143.40625 565.554688 1144.320312 564.257812 1145.265625 562.980469 C 1146.210938 561.707031 1147.1875 560.453125 1148.195312 559.226562 C 1149.203125 558 1150.242188 556.796875 1151.308594 555.621094 C 1152.375 554.441406 1153.46875 553.292969 1154.59375 552.167969 C 1155.714844 551.046875 1156.867188 549.953125 1158.042969 548.886719 C 1159.21875 547.820312 1160.421875 546.78125 1161.648438 545.773438 C 1162.878906 544.765625 1164.128906 543.789062 1165.40625 542.84375 C 1166.679688 541.898438 1167.980469 540.984375 1169.300781 540.101562 C 1170.621094 539.21875 1171.960938 538.371094 1173.324219 537.550781 C 1174.6875 536.734375 1176.070312 535.953125 1177.46875 535.203125 C 1178.871094 534.457031 1180.289062 533.742188 1181.726562 533.0625 C 1183.160156 532.382812 1184.613281 531.742188 1186.078125 531.132812 C 1187.546875 530.523438 1189.027344 529.953125 1190.523438 529.417969 C 1192.019531 528.882812 1193.527344 528.386719 1195.046875 527.925781 C 1196.566406 527.464844 1198.097656 527.039062 1199.640625 526.65625 C 1201.179688 526.269531 1202.730469 525.921875 1204.285156 525.609375 C 1205.84375 525.300781 1207.410156 525.03125 1208.980469 524.796875 C 1210.550781 524.5625 1212.128906 524.367188 1213.707031 524.214844 C 1215.289062 524.058594 1216.871094 523.941406 1218.460938 523.863281 C 1220.046875 523.785156 1221.632812 523.746094 1223.222656 523.746094 C 1224.808594 523.746094 1226.398438 523.785156 1227.984375 523.863281 C 1229.570312 523.941406 1231.152344 524.058594 1232.734375 524.214844 C 1234.316406 524.371094 1235.890625 524.5625 1237.464844 524.796875 C 1239.035156 525.03125 1240.597656 525.300781 1242.15625 525.609375 C 1243.714844 525.921875 1245.261719 526.269531 1246.804688 526.65625 C 1248.34375 527.039062 1249.875 527.464844 1251.394531 527.925781 C 1252.914062 528.386719 1254.421875 528.882812 1255.917969 529.417969 C 1257.414062 529.953125 1258.894531 530.523438 1260.363281 531.132812 C 1261.832031 531.742188 1263.28125 532.382812 1264.71875 533.0625 C 1266.15625 533.742188 1267.574219 534.457031 1268.972656 535.203125 C 1270.375 535.953125 1271.757812 536.734375 1273.117188 537.550781 C 1274.480469 538.367188 1275.824219 539.21875 1277.144531 540.101562 C 1278.464844 540.984375 1279.761719 541.898438 1281.039062 542.84375 C 1282.3125 543.789062 1283.566406 544.765625 1284.792969 545.773438 C 1286.019531 546.78125 1287.222656 547.820312 1288.402344 548.886719 C 1289.578125 549.953125 1290.726562 551.046875 1291.851562 552.167969 C 1292.972656 553.292969 1294.070312 554.441406 1295.136719 555.621094 C 1296.203125 556.796875 1297.238281 558 1298.246094 559.226562 C 1299.253906 560.453125 1300.230469 561.707031 1301.179688 562.980469 C 1302.125 564.257812 1303.039062 565.554688 1303.921875 566.875 C 1304.804688 568.195312 1305.652344 569.539062 1306.46875 570.898438 C 1307.285156 572.261719 1308.070312 573.644531 1308.816406 575.042969 C 1309.566406 576.445312 1310.28125 577.863281 1310.960938 579.296875 C 1311.636719 580.734375 1312.28125 582.1875 1312.890625 583.652344 C 1313.496094 585.121094 1314.070312 586.601562 1314.605469 588.097656 C 1315.140625 589.59375 1315.636719 591.101562 1316.097656 592.621094 C 1316.558594 594.140625 1316.984375 595.667969 1317.371094 597.210938 C 1317.753906 598.75 1318.101562 600.300781 1318.414062 601.859375 C 1318.722656 603.414062 1318.996094 604.980469 1319.226562 606.550781 C 1319.460938 608.121094 1319.65625 609.699219 1319.8125 611.277344 C 1319.964844 612.859375 1320.082031 614.441406 1320.160156 616.027344 C 1320.238281 617.613281 1320.277344 619.203125 1320.277344 620.789062 Z M 1320.277344 620.789062 " fill-opacity="1" fill-rule="nonzero"/></g></svg>